<svg xmlns="http://www.w3.org/2000/svg" viewBox="0 0 512 512">
	<linearGradient id="SVGq1yccdGD" x1="237.111" x2="166.193" y1="288.129" y2="60.179" gradientUnits="userSpaceOnUse">
		<stop offset="0" stop-color="#0d36a5" />
		<stop offset="1" stop-color="#1152d4" />
	</linearGradient>
	<path fill="url(#SVGq1yccdGD)" d="m5.5 88.4l150 167.6L335.9 54.3c-2.5-1-5.3-1.7-8.1-1.7H21.4c-18.5.1-28.2 22-15.9 35.8" />
	<linearGradient id="SVGty8u3WdX" x1="256" x2="256" y1="459.314" y2="54.338" gradientUnits="userSpaceOnUse">
		<stop offset="0" stop-color="#84caff" />
		<stop offset="1" stop-color="#61b1fb" />
	</linearGradient>
	<path fill="url(#SVGty8u3WdX)" d="m470.4 310.7l36.2-40.4c7.3-8.1 7.3-20.4 0-28.5l-36.2-40.4L343.8 59.8c-2.2-2.4-4.9-4.3-7.9-5.5L155.5 256L5.5 423.6c-12.3 13.8-2.6 35.7 15.9 35.7h306.4c6.1 0 11.9-2.6 15.9-7.1z" />
	<linearGradient id="SVG9QyWKbqm" x1="214.18" x2="214.18" y1="459.314" y2="54.338" gradientUnits="userSpaceOnUse">
		<stop offset="0" stop-color="#3b90f5" />
		<stop offset="1" stop-color="#2a78ee" />
	</linearGradient>
	<path fill="url(#SVG9QyWKbqm)" d="M343.8 59.8c-2.2-2.4-4.9-4.3-7.9-5.5L155.5 256L5.5 423.6c-12.3 13.8-2.6 35.7 15.9 35.7h134l272.9-305z" />
</svg>
